# xmcd
#
# Track frame offsets: 
#        150
#        21352
#        42537
#        70362
#        99390
#        127342
#        154155
#        176727
#
# Disc length: 2768 seconds
#
# Revision: 0
# Processed by: cddbd v1.5.1PL2 Copyright (c) Steve Scherf et al.
# Submitted via: ExactAudioCopy v0.95b3
#
DISCID=740ace08
DTITLE=Kay Reed - We Are One
DYEAR=1992
DGENRE=Blues
TTITLE0=I'm In Love
TTITLE1=Thank You For Telling Me Good-Bye
TTITLE2=Heart Inventory
TTITLE3=We Are One
TTITLE4=I Know It's You
TTITLE5=I Love You More Than You Will Ever Know
TTITLE6=The Other Side Of The Storm
TTITLE7=American Fruit
EXTD=
EXTT0=
EXTT1=
EXTT2=
EXTT3=
EXTT4=
EXTT5=
EXTT6=
EXTT7=
PLAYORDER=
